<?xml version="1.0" encoding="UTF-8"?>
<svg width="90px" height="78px" viewBox="0 0 90 78" version="1.1" xmlns="http://www.w3.org/2000/svg" xmlns:xlink="http://www.w3.org/1999/xlink">
    <!-- Generator: Sketch 48.2 (47327) - http://www.bohemiancoding.com/sketch -->
    <title>Shape</title>
    <desc>Created with Sketch.</desc>
    <defs></defs>
    <g id="Page-1" stroke="none" stroke-width="1" fill="none" fill-rule="evenodd">
        <g id="campaigns" fill="#000000" fill-rule="nonzero">
            <path d="M66.667,4.234 C66.534,3.267 66.2,2.617 65.667,2.284 C65.267,1.984 64.467,1.801 63.267,1.734 C62.334,1.701 61.75,1.984 61.517,2.584 C61.484,3.418 61.434,4.018 61.367,4.385 L61.267,5.685 L61.367,5.685 L61.367,7.985 C61.5,8.919 61.767,9.569 62.167,9.935 C62.467,10.301 63.017,10.468 63.817,10.435 C65.617,10.334 66.584,9.501 66.717,7.935 C66.816,6.301 66.8,5.068 66.667,4.234 Z M68.766,5.034 C69.033,5.301 69.55,5.451 70.316,5.484 L82.616,6.484 C84.849,6.884 86.483,7.65 87.516,8.784 C88.55,9.818 89.216,11.451 89.516,13.684 C90.05,18.517 90.133,22.818 89.766,26.583 C89.499,29.55 89.266,33.101 89.066,37.233 C88.933,41.966 88.833,45.5 88.766,47.833 L88.266,68.083 C88.2,68.983 88.15,69.533 88.116,69.733 C87.916,70.333 87.516,70.766 86.916,71.033 C86.649,70.733 86.566,70.35 86.666,69.884 C86.666,69.583 86.716,69.167 86.816,68.634 C86.816,61.267 86.849,55.734 86.916,52.033 C87.316,42.733 87.732,33.533 88.166,24.433 C88.366,20.799 88.166,17.166 87.566,13.533 C87.199,11.266 85.949,9.884 83.816,9.384 C81.949,8.884 79.733,8.484 77.166,8.184 C75.666,8.017 73.416,7.8 70.416,7.534 C69.316,7.468 68.616,8.017 68.316,9.184 C67.983,10.117 67.733,10.734 67.566,11.034 C67.199,11.701 66.683,12.101 66.016,12.234 C64.283,12.601 62.649,12.534 61.116,12.034 C59.916,11.668 59.349,10.801 59.416,9.434 C59.482,8.767 59.333,8.284 58.966,7.984 C58.766,7.851 58.283,7.717 57.516,7.584 C54.483,7.15 50.649,7.034 46.016,7.234 C39.516,7.434 35.7,7.534 34.566,7.534 C32.799,7.534 31.949,8.267 32.016,9.734 C32.016,9.834 31.966,10.034 31.866,10.334 C31.466,12.4 31.05,13.584 30.616,13.885 C30.216,14.218 29.016,14.319 27.016,14.185 C25.383,14.084 24.3,13.751 23.766,13.185 C23.233,12.685 22.916,11.602 22.816,9.935 L22.616,7.084 C20.883,7.818 18.433,8.568 15.266,9.334 C11.666,10.201 9.216,10.852 7.916,11.284 C4.583,12.385 2.699,14.601 2.266,17.934 C2.033,20.234 1.883,23.634 1.816,28.134 C1.816,29.568 1.882,31.55 2.016,34.083 C2.183,36.884 2.266,38.851 2.266,39.983 C2.266,41.216 2.433,42.933 2.766,45.133 C3.033,47.499 3.2,49.199 3.266,50.233 C3.366,52.299 3.666,54.817 4.166,57.783 C4.732,61.116 5.149,63.616 5.416,65.283 C5.683,67.149 5.882,68.283 6.016,68.683 C6.483,69.85 7.3,70.666 8.466,71.133 C8.833,72.6 9.683,73.516 11.016,73.883 C11.316,73.983 12.533,74.049 14.666,74.082 C17.399,74.183 21.516,74.482 27.016,74.982 C32.516,75.449 36.649,75.732 39.416,75.832 C47.316,76.166 54.433,76.35 60.766,76.383 C67.3,76.483 73.8,75.999 80.266,74.933 C80.966,74.832 81.966,74.399 83.266,73.633 L85.216,72.282 C85.683,72.049 86.099,72.148 86.466,72.582 C86.766,73.049 86.666,73.433 86.166,73.732 C85.399,74.199 84.216,74.898 82.616,75.832 C81.283,76.532 79.999,76.949 78.766,77.082 C75.833,77.416 72.283,77.633 68.116,77.732 C65.749,77.765 62.216,77.782 57.516,77.782 C49.583,77.949 40.149,77.666 29.216,76.932 C29.183,76.932 26.433,76.732 20.966,76.331 C17.633,76.031 14.883,75.965 12.716,76.132 C10.749,76.198 9.099,75.632 7.766,74.432 C6.966,73.732 5.966,72.365 4.766,70.331 C4.266,69.565 3.95,68.882 3.816,68.281 C2.882,62.348 2.333,58.382 2.166,56.382 C2.066,55.648 1.966,54.515 1.866,52.982 C1.766,51.582 1.633,50.432 1.466,49.532 C1.099,47.865 0.833,45.666 0.666,42.932 C0.532,39.365 0.416,37.132 0.316,36.232 C0.149,34.365 0.066,31.499 0.066,27.632 C-0.167,23.531 0.316,19.015 1.516,14.081 C1.783,12.882 2.499,11.897 3.666,11.132 C4.366,10.665 5.532,10.148 7.166,9.581 C8.999,8.948 11.282,8.331 14.016,7.731 C17.116,7.131 19.45,6.647 21.016,6.281 C21.683,6.114 22.099,5.915 22.266,5.681 C22.499,5.448 22.533,5.014 22.366,4.381 C21.933,2.681 22.616,1.914 24.416,2.08 C24.716,2.146 25.099,2.08 25.566,1.881 C26.199,1.681 26.583,1.565 26.716,1.53 C28.816,1.03 30.216,1.03 30.916,1.53 C31.649,2.03 32.183,3.396 32.516,5.631 C41.816,5.131 50.716,4.947 59.216,5.08 C58.916,2.947 58.966,1.631 59.366,1.131 C59.8,0.664 61.116,0.363 63.316,0.231 C64.449,0.131 65.449,0.147 66.316,0.281 C68.016,0.548 68.733,1.548 68.466,3.281 C68.333,4.117 68.433,4.701 68.766,5.034 Z M74.167,11.885 C73.967,11.685 73.917,11.451 74.017,11.185 C74.284,10.819 74.517,10.651 74.717,10.685 C76.284,10.785 77.467,10.868 78.267,10.935 C79.634,11.069 80.734,11.401 81.567,11.935 C81.5,12.501 81.283,12.785 80.917,12.785 C80.383,12.752 79.334,12.618 77.767,12.386 C76.534,12.152 75.517,12.052 74.717,12.085 C74.483,12.084 74.3,12.018 74.167,11.885 Z M47.816,27.435 C49.283,26.702 51.049,26.768 53.116,27.635 C59.783,30.435 63.699,35.501 64.866,42.834 C65.633,47.834 64.149,52.885 60.416,57.984 C56.749,62.984 52.516,65.818 47.716,66.484 C45.449,66.717 43.983,67.8 43.316,69.734 C45.649,70.3 47.266,70.434 48.166,70.134 C49.066,69.8 50.482,68.7 52.416,66.833 C52.749,67.233 52.732,67.75 52.366,68.384 C51.999,69.083 51.849,69.583 51.916,69.884 C55.116,71.217 57.616,70.116 59.416,66.583 L60.016,67.134 L59.066,69.984 C60.966,70.05 62.116,70.05 62.516,69.984 C63.649,69.717 64.499,69.001 65.066,67.834 C65.333,67.334 65.699,67.185 66.166,67.385 C66.599,67.651 66.699,68.018 66.466,68.485 C66.133,69.252 66.016,69.785 66.116,70.085 L74.316,68.985 C75.816,68.752 76.966,68.218 77.766,67.385 C78.499,66.584 79.05,65.367 79.416,63.735 C79.849,62.069 80.149,59.985 80.316,57.485 C80.416,56.118 80.532,54.035 80.666,51.235 C80.999,46.801 81.632,41.301 82.566,34.735 C82.933,32.235 82.766,28.952 82.066,24.885 C81.799,23.218 80.716,22.334 78.816,22.235 C77.483,22.235 74.882,22.135 71.016,21.935 C67.783,21.768 65.2,21.702 63.266,21.735 L34.916,21.735 C28.749,21.735 21.799,22.319 14.066,23.485 C12.199,23.752 10.683,23.651 9.516,23.185 C10.683,22.518 11.999,22.035 13.466,21.735 C13.933,21.635 15.283,21.485 17.516,21.285 C22.583,20.752 28.433,20.435 35.066,20.335 C37.066,20.335 42.949,20.368 52.716,20.436 C58.349,20.369 62.549,20.335 65.316,20.335 C70.283,20.335 74.499,20.436 77.966,20.636 L80.266,20.835 C81.833,20.936 82.833,21.186 83.266,21.585 C83.633,21.919 83.933,22.853 84.166,24.386 C84.566,26.886 84.649,29.853 84.416,33.285 C83.982,37.252 83.683,40.219 83.516,42.185 C83.116,46.185 82.849,49.202 82.716,51.235 C82.383,54.801 82.233,57.835 82.266,60.335 C82.333,61.269 82.133,62.401 81.666,63.735 C80.966,65.868 80.616,66.985 80.616,67.085 C80.283,68.485 79.033,69.452 76.866,69.985 C72.933,70.885 69.199,71.401 65.666,71.535 C59.666,71.636 55.916,71.768 54.416,71.935 C53.649,72.035 52.666,72.035 51.466,71.935 C50.799,71.901 49.799,71.819 48.466,71.685 C42.066,71.352 32.483,71.135 19.716,71.035 C17.916,71.035 16.149,70.969 14.416,70.835 C13.183,70.802 12.016,70.269 10.916,69.235 C9.849,68.235 9.316,67.151 9.316,65.985 C9.249,63.985 8.983,61.669 8.516,59.035 C8.249,57.502 7.816,55.235 7.216,52.235 C6.782,49.602 6.383,45.735 6.016,40.635 C5.749,37.034 5.616,33.401 5.616,29.735 C5.616,28.768 5.8,27.452 6.166,25.785 C6.433,24.719 6.949,24.252 7.716,24.386 C8.483,24.618 8.683,25.269 8.316,26.335 C7.782,28.002 7.549,29.952 7.616,32.186 C7.683,32.686 7.916,34.619 8.316,37.986 C8.616,38.052 8.916,37.886 9.216,37.486 C9.516,37.186 9.799,37.052 10.066,37.086 C10.233,37.42 10.299,37.604 10.266,37.637 C8.966,38.937 8.3,40.553 8.266,42.487 C8.2,43.421 8.433,45.237 8.966,47.937 C9.699,47.237 10.65,45.803 11.816,43.637 C12.083,43.17 12.233,42.903 12.266,42.836 C12.566,42.57 12.9,42.57 13.266,42.836 C13.666,43.137 13.599,43.604 13.066,44.236 C11.466,46.57 10.366,48.103 9.766,48.836 C9.266,49.437 9.083,50.17 9.216,51.036 C9.449,52.07 9.566,52.82 9.566,53.286 C9.532,53.753 9.649,54.053 9.916,54.186 C10.049,54.219 10.333,54.269 10.766,54.335 C10.099,56.035 10.266,58.136 11.266,60.636 C11.7,60.202 12.733,58.886 14.366,56.686 C15.566,54.953 16.816,53.82 18.116,53.286 C16.883,55.019 15.016,57.637 12.516,61.137 C11.749,62.137 11.366,62.869 11.366,63.336 C11.366,63.703 11.699,64.637 12.366,66.137 C12.999,65.536 14.216,64.203 16.016,62.137 C17.516,60.437 18.816,59.17 19.916,58.336 C20.149,58.902 20.132,59.387 19.866,59.786 C19.666,60.019 19.366,60.32 18.966,60.686 C17.766,62.052 15.983,64.019 13.616,66.585 C12.949,67.386 12.683,67.969 12.816,68.335 C13.016,68.669 13.632,68.919 14.666,69.085 C16.266,69.386 17.549,69.353 18.516,68.985 C19.716,68.551 20.716,67.635 21.516,66.235 C22.383,64.669 24.066,62.985 26.566,61.185 C26.199,62.584 25.283,64.001 23.816,65.435 C22.183,67.001 21.216,68.251 20.916,69.185 C23.083,69.651 25.699,69.834 28.766,69.735 C29.499,69.669 30.099,69.301 30.566,68.635 C30.966,67.801 31.299,67.201 31.566,66.834 C32.466,65.668 32.882,64.935 32.816,64.635 C32.783,64.435 32.266,63.935 31.266,63.135 C29.733,61.935 28.366,60.435 27.166,58.635 C26.333,57.334 25.349,55.518 24.216,53.185 C22.316,49.251 22.116,45.051 23.616,40.584 C24.983,36.318 27.449,33.018 31.016,30.685 C35.283,27.885 39.333,26.668 43.166,27.035 C43.599,27.035 43.933,27.085 44.166,27.185 C44.533,27.251 44.833,27.468 45.066,27.834 C44.699,28.367 44.183,28.65 43.516,28.685 C43.116,28.685 42.566,28.635 41.866,28.535 C36.866,28.401 32.449,30.702 28.616,35.435 C24.449,40.569 23.499,46.001 25.766,51.735 C27.666,56.569 30.933,60.535 35.566,63.635 C36.933,64.534 38.549,65.018 40.416,65.084 C41.716,65.185 43.433,65.034 45.566,64.635 C49.966,64.001 53.616,62.385 56.516,59.784 C59.45,57.251 61.416,53.9 62.416,49.734 C63.583,45.134 63.266,41.017 61.466,37.384 C59.466,33.351 55.966,30.616 50.966,29.184 C50.599,29.083 50.016,28.934 49.216,28.734 C48.583,28.534 48.116,28.102 47.816,27.435 Z M45.316,33.334 C44.583,32.602 44.549,32.068 45.216,31.734 C46.049,31.267 46.666,31.517 47.066,32.484 C47.433,33.484 48.016,34.668 48.816,36.034 C49.316,37.001 50.132,37.635 51.266,37.934 C53.7,38.568 55.516,39.3 56.716,40.134 C58.583,41.434 58.616,42.55 56.816,43.484 C53.183,45.384 51.899,48.351 52.966,52.384 C53.066,52.783 53.066,53.45 52.966,54.384 C52.799,55.484 52.299,56.2 51.466,56.533 C50.633,56.899 49.766,56.717 48.866,55.983 C48.566,55.716 47.183,54.283 44.716,51.683 C43.983,50.95 43.449,50.582 43.116,50.582 C42.849,50.582 42.333,50.949 41.566,51.683 L36.916,55.983 C36.416,56.45 35.666,56.883 34.666,57.283 C33.166,57.95 32.049,57.866 31.316,57.033 C30.616,56.2 30.683,55.183 31.516,53.983 C32.016,53.216 32.55,52.183 33.116,50.883 C33.849,49.216 34.333,48.166 34.566,47.733 L29.366,41.833 C28.633,40.601 28.883,39.833 30.116,39.533 C31.416,39.167 32.399,38.884 33.066,38.683 C34.166,38.35 35.132,38.233 35.966,38.332 C38.499,38.699 40.183,37.516 41.016,34.782 C41.316,33.782 41.733,32.633 42.266,31.332 C42.499,30.666 42.916,30.433 43.516,30.633 C43.983,30.832 44.083,31.199 43.816,31.733 C42.849,34.233 42.249,36.25 42.016,37.783 C41.783,39.116 40.783,39.783 39.016,39.783 C36.649,39.717 34.566,40.2 32.766,41.233 C32.8,41.933 33.033,42.567 33.466,43.133 C34.033,43.699 34.449,44.115 34.716,44.383 C35.649,45.35 36.183,46.183 36.316,46.883 C36.449,47.615 36.233,48.532 35.666,49.633 C35.132,50.766 34.716,51.582 34.416,52.082 C33.982,53.049 33.666,53.898 33.466,54.633 C34.066,55.067 34.733,55.032 35.466,54.532 C36.899,53.365 37.999,52.482 38.766,51.883 C39.966,50.817 40.899,49.817 41.566,48.883 C42.266,48.016 42.783,47.582 43.116,47.582 C43.483,47.582 44.016,47.966 44.716,48.732 L48.116,52.382 C49.149,53.482 50.233,54.048 51.366,54.081 C51.233,51.515 50.866,49.349 50.266,47.581 C49.899,46.548 49.816,45.849 50.016,45.481 C50.149,45.081 50.7,44.731 51.666,44.431 C52.266,44.264 53.149,43.815 54.316,43.08 C54.816,42.747 55.066,42.363 55.066,41.931 C55.033,41.565 54.733,41.264 54.166,41.031 C53.666,40.864 52.899,40.565 51.866,40.132 C50.999,39.831 50.183,39.698 49.416,39.732 C47.516,39.865 46.666,39.032 46.866,37.232 C46.899,35.801 46.383,34.501 45.316,33.334 Z M29.917,3.135 C28.85,2.534 27.633,2.668 26.267,3.534 C24.867,4.367 24.167,5.385 24.167,6.584 L24.717,9.534 C24.95,10.734 25.2,11.468 25.467,11.734 C25.767,12.034 26.467,12.201 27.567,12.234 C28.434,12.267 29.084,12.05 29.517,11.584 C29.75,11.318 30.051,10.701 30.417,9.734 C30.65,9.101 30.667,8.101 30.467,6.734 C30.3,5.501 30.35,4.55 30.617,3.884 C30.616,3.751 30.383,3.501 29.917,3.135 Z M16.466,49.034 C15.866,49.635 14.983,50.584 13.816,51.885 C12.849,52.951 11.882,53.735 10.916,54.235 C11.216,53.235 11.899,52.169 12.966,51.035 C14.499,49.469 15.383,48.518 15.616,48.185 C15.816,47.885 16.099,47.885 16.466,48.185 C16.766,48.518 16.766,48.801 16.466,49.034 Z M42.616,67.234 C39.983,67.334 37.533,66.934 35.266,66.034 C34.466,65.767 33.916,65.934 33.616,66.534 C33.416,66.867 33.05,67.284 32.516,67.784 C32.083,68.284 31.849,68.834 31.816,69.434 C34.983,69.967 38.149,69.967 41.316,69.434 C41.683,69.4 41.999,69.201 42.266,68.833 C42.6,68.367 42.716,67.834 42.616,67.234 Z" id="Shape"></path>
        </g>
    </g>
</svg>